<mxfile host="app.diagrams.net" modified="2024-04-28T08:36:46.272Z" agent="Mozilla/5.0 (Windows NT 10.0; Win64; x64) AppleWebKit/537.36 (KHTML, like Gecko) Chrome/124.0.0.0 Safari/537.36" version="24.0.4" etag="cvjRH1zfuECWnUDSAR8b" type="github">
  <diagram name="第 1 页" id="DlWN55uscxczcILQR3X1">
    <mxGraphModel>
      <root>
        <mxCell id="0" />
        <mxCell id="1" parent="0" />
      </root>
    </mxGraphModel>
  </diagram>
</mxfile>
